<mxfile host="app.diagrams.net" agent="Mozilla/5.0 (Windows NT 10.0; Win64; x64) AppleWebKit/537.36 (KHTML, like Gecko) Chrome/131.0.0.0 Safari/537.36 OPR/116.0.0.0 (Edition std-1)" version="26.0.14">
  <diagram name="PÃ¡gina-1" id="49l7PqGcJAjD0Nde7i17">
    <mxGraphModel grid="1" page="1" gridSize="10" guides="1" tooltips="1" connect="1" arrows="1" fold="1" pageScale="1" pageWidth="827" pageHeight="1169" math="0" shadow="0">
      <root>
        <mxCell id="0" />
        <mxCell id="1" parent="0" />
        <mxCell id="ObT5HwREHC3Wh-sppW7N-1" value="Carta" style="swimlane;fontStyle=1;align=center;verticalAlign=top;childLayout=stackLayout;horizontal=1;startSize=26;horizontalStack=0;resizeParent=1;resizeParentMax=0;resizeLast=0;collapsible=1;marginBottom=0;whiteSpace=wrap;html=1;" vertex="1" parent="1">
          <mxGeometry x="50" y="40" width="160" height="112" as="geometry" />
        </mxCell>
        <mxCell id="ObT5HwREHC3Wh-sppW7N-2" value="+ valor: String" style="text;strokeColor=none;fillColor=none;align=left;verticalAlign=top;spacingLeft=4;spacingRight=4;overflow=hidden;rotatable=0;points=[[0,0.5],[1,0.5]];portConstraint=eastwest;whiteSpace=wrap;html=1;" vertex="1" parent="ObT5HwREHC3Wh-sppW7N-1">
          <mxGeometry y="26" width="160" height="26" as="geometry" />
        </mxCell>
        <mxCell id="ObT5HwREHC3Wh-sppW7N-5" value="+ palo: String" style="text;strokeColor=none;fillColor=none;align=left;verticalAlign=top;spacingLeft=4;spacingRight=4;overflow=hidden;rotatable=0;points=[[0,0.5],[1,0.5]];portConstraint=eastwest;whiteSpace=wrap;html=1;" vertex="1" parent="ObT5HwREHC3Wh-sppW7N-1">
          <mxGeometry y="52" width="160" height="26" as="geometry" />
        </mxCell>
        <mxCell id="ObT5HwREHC3Wh-sppW7N-3" value="" style="line;strokeWidth=1;fillColor=none;align=left;verticalAlign=middle;spacingTop=-1;spacingLeft=3;spacingRight=3;rotatable=0;labelPosition=right;points=[];portConstraint=eastwest;strokeColor=inherit;" vertex="1" parent="ObT5HwREHC3Wh-sppW7N-1">
          <mxGeometry y="78" width="160" height="8" as="geometry" />
        </mxCell>
        <mxCell id="ObT5HwREHC3Wh-sppW7N-4" value="+ mostrarCarta(): void" style="text;strokeColor=none;fillColor=none;align=left;verticalAlign=top;spacingLeft=4;spacingRight=4;overflow=hidden;rotatable=0;points=[[0,0.5],[1,0.5]];portConstraint=eastwest;whiteSpace=wrap;html=1;" vertex="1" parent="ObT5HwREHC3Wh-sppW7N-1">
          <mxGeometry y="86" width="160" height="26" as="geometry" />
        </mxCell>
        <mxCell id="ObT5HwREHC3Wh-sppW7N-6" value="Mazo" style="swimlane;fontStyle=1;align=center;verticalAlign=top;childLayout=stackLayout;horizontal=1;startSize=26;horizontalStack=0;resizeParent=1;resizeParentMax=0;resizeLast=0;collapsible=1;marginBottom=0;whiteSpace=wrap;html=1;" vertex="1" parent="1">
          <mxGeometry x="310" y="40" width="160" height="112" as="geometry" />
        </mxCell>
        <mxCell id="ObT5HwREHC3Wh-sppW7N-7" value="+ cartas: List&amp;lt;Carta&amp;gt;" style="text;strokeColor=none;fillColor=none;align=left;verticalAlign=top;spacingLeft=4;spacingRight=4;overflow=hidden;rotatable=0;points=[[0,0.5],[1,0.5]];portConstraint=eastwest;whiteSpace=wrap;html=1;" vertex="1" parent="ObT5HwREHC3Wh-sppW7N-6">
          <mxGeometry y="26" width="160" height="26" as="geometry" />
        </mxCell>
        <mxCell id="ObT5HwREHC3Wh-sppW7N-9" value="" style="line;strokeWidth=1;fillColor=none;align=left;verticalAlign=middle;spacingTop=-1;spacingLeft=3;spacingRight=3;rotatable=0;labelPosition=right;points=[];portConstraint=eastwest;strokeColor=inherit;" vertex="1" parent="ObT5HwREHC3Wh-sppW7N-6">
          <mxGeometry y="52" width="160" height="8" as="geometry" />
        </mxCell>
        <mxCell id="ObT5HwREHC3Wh-sppW7N-10" value="+ barajear(): void" style="text;strokeColor=none;fillColor=none;align=left;verticalAlign=top;spacingLeft=4;spacingRight=4;overflow=hidden;rotatable=0;points=[[0,0.5],[1,0.5]];portConstraint=eastwest;whiteSpace=wrap;html=1;" vertex="1" parent="ObT5HwREHC3Wh-sppW7N-6">
          <mxGeometry y="60" width="160" height="26" as="geometry" />
        </mxCell>
        <mxCell id="ObT5HwREHC3Wh-sppW7N-11" value="+ repartir(): Carta" style="text;strokeColor=none;fillColor=none;align=left;verticalAlign=top;spacingLeft=4;spacingRight=4;overflow=hidden;rotatable=0;points=[[0,0.5],[1,0.5]];portConstraint=eastwest;whiteSpace=wrap;html=1;" vertex="1" parent="ObT5HwREHC3Wh-sppW7N-6">
          <mxGeometry y="86" width="160" height="26" as="geometry" />
        </mxCell>
        <mxCell id="ObT5HwREHC3Wh-sppW7N-12" value="Juego" style="swimlane;fontStyle=1;align=center;verticalAlign=top;childLayout=stackLayout;horizontal=1;startSize=26;horizontalStack=0;resizeParent=1;resizeParentMax=0;resizeLast=0;collapsible=1;marginBottom=0;whiteSpace=wrap;html=1;" vertex="1" parent="1">
          <mxGeometry x="580" y="40" width="180" height="138" as="geometry" />
        </mxCell>
        <mxCell id="ObT5HwREHC3Wh-sppW7N-13" value="+ nombre: String" style="text;strokeColor=none;fillColor=none;align=left;verticalAlign=top;spacingLeft=4;spacingRight=4;overflow=hidden;rotatable=0;points=[[0,0.5],[1,0.5]];portConstraint=eastwest;whiteSpace=wrap;html=1;" vertex="1" parent="ObT5HwREHC3Wh-sppW7N-12">
          <mxGeometry y="26" width="180" height="26" as="geometry" />
        </mxCell>
        <mxCell id="ObT5HwREHC3Wh-sppW7N-17" value="+ jugadores: List&amp;lt;Jugador&amp;gt;" style="text;strokeColor=none;fillColor=none;align=left;verticalAlign=top;spacingLeft=4;spacingRight=4;overflow=hidden;rotatable=0;points=[[0,0.5],[1,0.5]];portConstraint=eastwest;whiteSpace=wrap;html=1;" vertex="1" parent="ObT5HwREHC3Wh-sppW7N-12">
          <mxGeometry y="52" width="180" height="26" as="geometry" />
        </mxCell>
        <mxCell id="ObT5HwREHC3Wh-sppW7N-14" value="" style="line;strokeWidth=1;fillColor=none;align=left;verticalAlign=middle;spacingTop=-1;spacingLeft=3;spacingRight=3;rotatable=0;labelPosition=right;points=[];portConstraint=eastwest;strokeColor=inherit;" vertex="1" parent="ObT5HwREHC3Wh-sppW7N-12">
          <mxGeometry y="78" width="180" height="8" as="geometry" />
        </mxCell>
        <mxCell id="ObT5HwREHC3Wh-sppW7N-15" value="+ iniciar(): void" style="text;strokeColor=none;fillColor=none;align=left;verticalAlign=top;spacingLeft=4;spacingRight=4;overflow=hidden;rotatable=0;points=[[0,0.5],[1,0.5]];portConstraint=eastwest;whiteSpace=wrap;html=1;" vertex="1" parent="ObT5HwREHC3Wh-sppW7N-12">
          <mxGeometry y="86" width="180" height="26" as="geometry" />
        </mxCell>
        <mxCell id="ObT5HwREHC3Wh-sppW7N-16" value="+ terminar(): void" style="text;strokeColor=none;fillColor=none;align=left;verticalAlign=top;spacingLeft=4;spacingRight=4;overflow=hidden;rotatable=0;points=[[0,0.5],[1,0.5]];portConstraint=eastwest;whiteSpace=wrap;html=1;" vertex="1" parent="ObT5HwREHC3Wh-sppW7N-12">
          <mxGeometry y="112" width="180" height="26" as="geometry" />
        </mxCell>
        <mxCell id="ObT5HwREHC3Wh-sppW7N-18" value="Jugador" style="swimlane;fontStyle=1;align=center;verticalAlign=top;childLayout=stackLayout;horizontal=1;startSize=26;horizontalStack=0;resizeParent=1;resizeParentMax=0;resizeLast=0;collapsible=1;marginBottom=0;whiteSpace=wrap;html=1;" vertex="1" parent="1">
          <mxGeometry x="280" y="210" width="220" height="138" as="geometry" />
        </mxCell>
        <mxCell id="ObT5HwREHC3Wh-sppW7N-19" value="+ nombre: String" style="text;strokeColor=none;fillColor=none;align=left;verticalAlign=top;spacingLeft=4;spacingRight=4;overflow=hidden;rotatable=0;points=[[0,0.5],[1,0.5]];portConstraint=eastwest;whiteSpace=wrap;html=1;" vertex="1" parent="ObT5HwREHC3Wh-sppW7N-18">
          <mxGeometry y="26" width="220" height="26" as="geometry" />
        </mxCell>
        <mxCell id="ObT5HwREHC3Wh-sppW7N-20" value="+ mano: List&amp;lt;Carta&amp;gt;" style="text;strokeColor=none;fillColor=none;align=left;verticalAlign=top;spacingLeft=4;spacingRight=4;overflow=hidden;rotatable=0;points=[[0,0.5],[1,0.5]];portConstraint=eastwest;whiteSpace=wrap;html=1;" vertex="1" parent="ObT5HwREHC3Wh-sppW7N-18">
          <mxGeometry y="52" width="220" height="26" as="geometry" />
        </mxCell>
        <mxCell id="ObT5HwREHC3Wh-sppW7N-21" value="" style="line;strokeWidth=1;fillColor=none;align=left;verticalAlign=middle;spacingTop=-1;spacingLeft=3;spacingRight=3;rotatable=0;labelPosition=right;points=[];portConstraint=eastwest;strokeColor=inherit;" vertex="1" parent="ObT5HwREHC3Wh-sppW7N-18">
          <mxGeometry y="78" width="220" height="8" as="geometry" />
        </mxCell>
        <mxCell id="ObT5HwREHC3Wh-sppW7N-22" value="+ tomarCarta(carta: Carta): &lt;span class=&quot;hljs-type&quot;&gt;void&lt;/span&gt;" style="text;strokeColor=none;fillColor=none;align=left;verticalAlign=top;spacingLeft=4;spacingRight=4;overflow=hidden;rotatable=0;points=[[0,0.5],[1,0.5]];portConstraint=eastwest;whiteSpace=wrap;html=1;" vertex="1" parent="ObT5HwREHC3Wh-sppW7N-18">
          <mxGeometry y="86" width="220" height="26" as="geometry" />
        </mxCell>
        <mxCell id="ObT5HwREHC3Wh-sppW7N-23" value="+ mostrarMano(): &lt;span class=&quot;hljs-type&quot;&gt;void&lt;/span&gt;" style="text;strokeColor=none;fillColor=none;align=left;verticalAlign=top;spacingLeft=4;spacingRight=4;overflow=hidden;rotatable=0;points=[[0,0.5],[1,0.5]];portConstraint=eastwest;whiteSpace=wrap;html=1;" vertex="1" parent="ObT5HwREHC3Wh-sppW7N-18">
          <mxGeometry y="112" width="220" height="26" as="geometry" />
        </mxCell>
        <mxCell id="ObT5HwREHC3Wh-sppW7N-24" value="" style="html=1;verticalAlign=bottom;endArrow=block;curved=0;rounded=0;entryX=-0.006;entryY=-0.308;entryDx=0;entryDy=0;entryPerimeter=0;" edge="1" parent="1" target="ObT5HwREHC3Wh-sppW7N-15">
          <mxGeometry width="80" relative="1" as="geometry">
            <mxPoint x="470" y="95.5" as="sourcePoint" />
            <mxPoint x="550" y="95.5" as="targetPoint" />
          </mxGeometry>
        </mxCell>
        <mxCell id="ObT5HwREHC3Wh-sppW7N-25" value="" style="html=1;verticalAlign=bottom;endArrow=block;curved=0;rounded=0;entryX=-0.025;entryY=-0.192;entryDx=0;entryDy=0;entryPerimeter=0;" edge="1" parent="1" target="ObT5HwREHC3Wh-sppW7N-10">
          <mxGeometry width="80" relative="1" as="geometry">
            <mxPoint x="210" y="95.5" as="sourcePoint" />
            <mxPoint x="290" y="95.5" as="targetPoint" />
            <mxPoint as="offset" />
          </mxGeometry>
        </mxCell>
        <mxCell id="ObT5HwREHC3Wh-sppW7N-28" value="" style="endArrow=block;startArrow=block;endFill=1;startFill=1;html=1;rounded=0;exitX=1;exitY=0.065;exitDx=0;exitDy=0;exitPerimeter=0;entryX=-0.011;entryY=0.962;entryDx=0;entryDy=0;entryPerimeter=0;" edge="1" parent="1" source="ObT5HwREHC3Wh-sppW7N-18" target="ObT5HwREHC3Wh-sppW7N-16">
          <mxGeometry width="160" relative="1" as="geometry">
            <mxPoint x="540" y="260" as="sourcePoint" />
            <mxPoint x="700" y="260" as="targetPoint" />
          </mxGeometry>
        </mxCell>
      </root>
    </mxGraphModel>
  </diagram>
</mxfile>
